<?xml version="1.0" encoding="utf-8"?>
<!-- Generator: Adobe Illustrator 26.1.0, SVG Export Plug-In . SVG Version: 6.00 Build 0)  -->
<svg version="1.1" id="Layer_1" xmlns="http://www.w3.org/2000/svg" xmlns:xlink="http://www.w3.org/1999/xlink" x="0px" y="0px"
	 viewBox="0 0 327.92 78.46" style="enable-background:new 0 0 327.92 78.46;" xml:space="preserve">
<style type="text/css">
	.st0{fill:#FFFFFF;}
	.st1{fill-rule:evenodd;clip-rule:evenodd;fill:none;}
</style>
<g>
	<path class="st0" d="M-22.23-148.23c125,0,250,0,375,0c0,125,0,250,0,375c-125,0-250,0-375,0
		C-22.23,101.77-22.23-23.23-22.23-148.23z M0.98,78.2c108.84,0,217.55,0,326.35,0c0-25.8,0-51.48,0-77.27
		c-108.83,0-217.54,0-326.35,0C0.98,26.74,0.98,52.43,0.98,78.2z"/>
	<path d="M0.98,78.2c0-25.77,0-51.46,0-77.27c108.8,0,217.52,0,326.35,0c0,25.79,0,51.47,0,77.27C218.52,78.2,109.82,78.2,0.98,78.2
		z M164.87,76.37c53.68,0,107.13,0,160.61,0c0-24.64,0-49.14,0-73.71c-53.59,0-107.04,0-160.61,0
		C164.87,27.27,164.87,51.76,164.87,76.37z M110.78,31.31c0.13-0.04,0.27-0.09,0.4-0.13c5.7,8.06,11.4,16.12,16.99,24.02
		c1.42,0,2.58,0,3.81,0c0-10.73,0-21.34,0-31.98c-1.36,0-2.57,0-3.99,0c0,8.05,0,15.97,0,23.88c-0.13,0.04-0.27,0.09-0.4,0.13
		c-5.7-8.06-11.41-16.12-17.01-24.04c-1.43,0-2.59,0-3.81,0c0,10.73,0,21.35,0,31.98c1.37,0,2.59,0,4.01,0
		C110.78,47.13,110.78,39.22,110.78,31.31z M95.76,34.12c-1.81-7.76-9.81-12.69-18.24-11.44c-8.64,1.28-14.22,8.59-13.63,17.86
		c0.57,8.95,7.19,15.25,16.12,15.33c7.81,0.07,15.31-5.54,15.92-11.99c-1.36,0-2.71,0-4.01,0c-3.98,6.58-9.14,9.02-15.17,7.25
		c-5.53-1.63-8.61-6.14-8.49-12.46c0.1-5.62,3.53-10.19,8.55-11.41c6.47-1.57,11.39,0.71,14.75,6.87
		C92.89,34.12,94.26,34.12,95.76,34.12z M57.24,55.19C52.77,44.34,48.4,33.7,44.06,23.15c-1.47,0-2.64,0-3.97,0
		c-4.37,10.64-8.74,21.27-13.16,32.05c1.74,0,3.1,0,4.51,0c1.01-2.42,1.99-4.76,2.94-7.03c5.24,0,10.28,0,15.4,0
		c1.02,2.4,2.02,4.73,3,7.02C54.25,55.19,55.6,55.19,57.24,55.19z"/>
	<path class="st0" d="M164.87,76.37c0-24.61,0-49.11,0-73.71c53.57,0,107.02,0,160.61,0c0,24.58,0,49.07,0,73.71
		C271.99,76.37,218.55,76.37,164.87,76.37z M186.26,35.71c0.15-0.06,0.3-0.11,0.45-0.17c2.36,3.41,4.71,6.83,7.08,10.25
		c1.5,0,2.94,0,4.53,0c2.32-3.32,4.67-6.7,7.03-10.08c0.17,0.07,0.34,0.15,0.51,0.22c0,5.75,0,11.49,0,17.34c2.22,0,4.22,0,6.33,0
		c0-9.93,0-19.74,0-29.65c-1.9,0-3.65,0-5.46,0c-3.49,5.1-6.97,10.18-10.61,15.51c-3.66-5.31-7.18-10.42-10.64-15.45
		c-1.96,0-3.76,0-5.57,0c0,9.93,0,19.7,0,29.56c2.13,0,4.14,0,6.35,0C186.26,47.32,186.26,41.52,186.26,35.71z M245.91,53.68
		c5.48-0.33,10.87-0.33,16.14-1.13c2.41-0.37,4.96-1.91,6.79-3.63c4.85-4.57,5.38-10.44,3.2-16.37c-2.07-5.66-6.71-8.49-12.62-8.87
		c-4.32-0.28-8.67-0.09-13-0.09c-0.17,0-0.34,0.15-0.51,0.23C245.91,33.61,245.91,43.38,245.91,53.68z M301.39,23.61
		c-3.91,9.87-7.8,19.68-11.76,29.69c2.58,0,4.73,0,6.9,0c0.72-1.75,1.42-3.43,2.12-5.1c4.12,0,8.1,0,12.05,0
		c0.75,1.79,1.46,3.47,2.1,5c2.4,0,4.58,0,6.92,0c-3.98-10.01-7.87-19.8-11.76-29.59C305.72,23.61,303.7,23.61,301.39,23.61z
		 M226.42,28.88c4.33,0,8.45,0,12.56,0c0-1.87,0-3.54,0-5.24c-6.44,0-12.72,0-19.08,0c0,9.93,0,19.74,0,29.59
		c6.62,0,13.09,0,19.61,0c0-1.89,0-3.63,0-5.61c-4.43,0-8.74,0-13.02,0c0-2.36,0-4.47,0-6.79c3.91,0,7.63,0,11.35,0
		c0-1.87,0-3.53,0-5.4c-3.87,0-7.59,0-11.43,0C226.42,33.22,226.42,31.22,226.42,28.88z M285.17,23.64c-2.12,0-4.13,0-6.28,0
		c0,9.86,0,19.68,0,29.58c2.17,0,4.22,0,6.28,0C285.17,43.29,285.17,33.52,285.17,23.64z"/>
	<path class="st0" d="M110.78,31.31c0,7.91,0,15.82,0,23.87c-1.42,0-2.64,0-4.01,0c0-10.64,0-21.25,0-31.98c1.22,0,2.38,0,3.81,0
		c5.6,7.92,11.31,15.98,17.01,24.04c0.13-0.04,0.27-0.09,0.4-0.13c0-7.91,0-15.83,0-23.88c1.42,0,2.63,0,3.99,0
		c0,10.64,0,21.25,0,31.98c-1.23,0-2.39,0-3.81,0c-5.59-7.9-11.29-15.96-16.99-24.02C111.05,31.22,110.92,31.26,110.78,31.31z"/>
	<path class="st0" d="M95.76,34.12c-1.5,0-2.86,0-4.19,0c-3.36-6.16-8.29-8.44-14.75-6.87c-5.02,1.22-8.45,5.79-8.55,11.41
		c-0.12,6.32,2.96,10.84,8.49,12.46c6.03,1.77,11.19-0.67,15.17-7.25c1.29,0,2.65,0,4.01,0c-0.61,6.46-8.11,12.06-15.92,11.99
		c-8.92-0.08-15.55-6.38-16.12-15.33c-0.59-9.27,4.99-16.58,13.63-17.86C85.94,21.43,93.94,26.36,95.76,34.12z"/>
	<path class="st0" d="M57.24,55.19c-1.64,0-2.98,0-4.47,0c-0.98-2.29-1.98-4.63-3-7.02c-5.11,0-10.15,0-15.4,0
		c-0.95,2.28-1.93,4.62-2.94,7.03c-1.42,0-2.77,0-4.51,0c4.43-10.78,8.79-21.41,13.16-32.05c1.34,0,2.5,0,3.97,0
		C48.4,33.7,52.77,44.34,57.24,55.19z M36.1,43.89c4.1,0,7.92,0,11.99,0c-2-4.85-3.91-9.49-6.04-14.66
		C39.93,34.45,38.06,39.05,36.1,43.89z"/>
	<path d="M186.26,35.71c0,5.81,0,11.62,0,17.55c-2.22,0-4.22,0-6.35,0c0-9.87,0-19.64,0-29.56c1.81,0,3.61,0,5.57,0
		c3.46,5.02,6.99,10.14,10.64,15.45c3.65-5.33,7.12-10.41,10.61-15.51c1.81,0,3.56,0,5.46,0c0,9.9,0,19.72,0,29.65
		c-2.1,0-4.11,0-6.33,0c0-5.84,0-11.59,0-17.34c-0.17-0.07-0.34-0.15-0.51-0.22c-2.36,3.38-4.72,6.76-7.03,10.08
		c-1.59,0-3.03,0-4.53,0c-2.37-3.43-4.72-6.84-7.08-10.25C186.57,35.59,186.42,35.65,186.26,35.71z"/>
	<path d="M245.91,53.68c0-10.3,0-20.06,0-29.86c0.17-0.08,0.34-0.23,0.51-0.23c4.34,0,8.68-0.18,13,0.09
		c5.91,0.38,10.54,3.21,12.62,8.87c2.17,5.93,1.65,11.8-3.2,16.37c-1.82,1.72-4.38,3.26-6.79,3.63
		C256.78,53.35,251.39,53.34,245.91,53.68z M252.41,47.14c2.19,0,4.23,0.16,6.24-0.03c3.47-0.33,6.1-2.03,7.2-5.49
		c1.12-3.55,0.77-6.9-2.02-9.63c-3.24-3.17-7.33-2.5-11.42-2.48C252.41,35.4,252.41,41.14,252.41,47.14z"/>
	<path d="M301.39,23.61c2.31,0,4.34,0,6.57,0c3.89,9.78,7.78,19.58,11.76,29.59c-2.34,0-4.51,0-6.92,0c-0.65-1.54-1.35-3.22-2.1-5
		c-3.95,0-7.93,0-12.05,0c-0.7,1.68-1.39,3.36-2.12,5.1c-2.17,0-4.32,0-6.9,0C293.59,43.29,297.48,33.47,301.39,23.61z M304.9,32.15
		c-0.17,0.01-0.34,0.02-0.51,0.02c-1.32,3.5-2.63,6.99-3.99,10.6c3.07,0,5.76,0,8.64,0C307.61,39.07,306.26,35.61,304.9,32.15z"/>
	<path d="M226.42,28.88c0,2.33,0,4.34,0,6.55c3.83,0,7.55,0,11.43,0c0,1.87,0,3.53,0,5.4c-3.73,0-7.44,0-11.35,0
		c0,2.31,0,4.43,0,6.79c4.28,0,8.59,0,13.02,0c0,1.98,0,3.72,0,5.61c-6.52,0-13,0-19.61,0c0-9.85,0-19.66,0-29.59
		c6.36,0,12.64,0,19.08,0c0,1.7,0,3.37,0,5.24C234.87,28.88,230.75,28.88,226.42,28.88z"/>
	<path d="M285.17,23.64c0,9.88,0,19.65,0,29.58c-2.06,0-4.12,0-6.28,0c0-9.89,0-19.71,0-29.58
		C281.04,23.64,283.05,23.64,285.17,23.64z"/>
	<path d="M36.1,43.89c1.96-4.84,3.83-9.43,5.96-14.66c2.13,5.17,4.04,9.81,6.04,14.66C44.02,43.89,40.2,43.89,36.1,43.89z"/>
	<path class="st0" d="M252.41,47.14c0-5.99,0-11.74,0-17.64c4.09-0.01,8.18-0.69,11.42,2.48c2.79,2.73,3.14,6.09,2.02,9.63
		c-1.1,3.46-3.72,5.16-7.2,5.49C256.64,47.29,254.6,47.14,252.41,47.14z"/>
	<path class="st0" d="M304.9,32.15c1.35,3.46,2.7,6.93,4.15,10.62c-2.88,0-5.58,0-8.64,0c1.36-3.61,2.67-7.11,3.99-10.6
		C304.57,32.16,304.74,32.15,304.9,32.15z"/>
</g>
<rect x="-22.77" y="-33.54" class="st1" width="375" height="140.25"/>
</svg>
