<svg id="Layer_1" data-name="Layer 1" xmlns="http://www.w3.org/2000/svg" viewBox="0 0 388.35 97.8">
  <defs>
    <style>
      .headercls-1 {
        fill: #7cc24d;
      }

      .headercls-2 {
        fill: #0e1b62;
      }

      .headercls-3 {
        fill: #00a98e;
      }
    </style>
  </defs>
  <g>
    <g>
      <polygon class="headercls-2" points="157.41 28.75 173.66 28.75 173.66 22.58 157.41 22.58 157.41 15.35 174.56 15.35 174.56 8.98 150.24 8.98 150.24 43.45 175.46 43.45 175.46 36.98 157.41 36.98 157.41 28.75"></polygon>
      <path class="headercls-2" d="M199.55,21.05c-.75-.95-1.73-1.72-2.9-2.29-1.17-.58-2.59-.87-4.22-.87-1.88,0-3.54,.49-4.92,1.45-.9,.63-1.63,1.33-2.19,2.09v-2.84h-6.57v24.87h6.87v-13.63c0-.75,.11-1.51,.33-2.25,.22-.73,.54-1.38,.96-1.94,.41-.55,.95-1,1.59-1.35,.63-.35,1.4-.52,2.29-.52s1.57,.18,2.08,.52c.52,.36,.94,.82,1.24,1.37,.31,.57,.51,1.22,.6,1.92,.1,.75,.15,1.47,.15,2.14v13.73h6.87v-15.43c0-1.26-.17-2.51-.52-3.72-.35-1.22-.91-2.31-1.65-3.25Z"></path>
      <path class="headercls-2" d="M208.68,40.15c1.05,1.19,2.35,2.15,3.84,2.86,1.5,.71,3.22,1.07,5.11,1.07,1.76,0,3.43-.39,4.97-1.15,1.17-.58,2.16-1.36,2.95-2.34v2.79h6.57V8.97h-6.87v12c-.17-.19-.36-.37-.57-.56-.49-.46-1.08-.88-1.76-1.26-.68-.38-1.47-.71-2.37-.96-.9-.26-1.94-.39-3.07-.39-1.76,0-3.4,.34-4.88,1.01-1.48,.67-2.77,1.61-3.84,2.78-1.07,1.17-1.91,2.56-2.49,4.14-.58,1.58-.88,3.29-.88,5.1s.29,3.53,.85,5.12c.57,1.6,1.39,3.01,2.44,4.19Zm3.69-9.31c0-.88,.14-1.77,.41-2.65,.27-.86,.67-1.65,1.2-2.34,.53-.68,1.2-1.24,2.01-1.65,.8-.42,1.76-.62,2.85-.62,1.02,0,1.94,.22,2.74,.65,.81,.44,1.52,1.01,2.1,1.7,.58,.69,1.02,1.48,1.32,2.36,.3,.89,.45,1.78,.45,2.66s-.15,1.76-.45,2.63c-.3,.86-.74,1.65-1.32,2.34-.58,.69-1.28,1.25-2.09,1.67-.8,.42-1.73,.63-2.75,.63-1.09,0-2.04-.22-2.84-.65-.81-.44-1.49-1-2.01-1.68-.53-.68-.93-1.48-1.2-2.36-.27-.89-.41-1.79-.41-2.67Z"></path>
      <path class="headercls-2" d="M239.73,40.69c1.19,1.1,2.61,1.97,4.22,2.56,1.61,.6,3.39,.9,5.3,.9,4.63,0,8.21-1.67,10.65-4.98l.25-.34-4.69-3.75-.26,.38c-.63,.9-1.43,1.62-2.4,2.14-.97,.51-2.18,.77-3.6,.77-.81,0-1.6-.14-2.35-.42-.75-.28-1.43-.67-2.03-1.15-.59-.48-1.06-1.06-1.42-1.72-.28-.53-.47-1.11-.57-1.73h18.15l.04-.38c.03-.28,.05-.57,.05-.85v-.8c0-2.21-.3-4.16-.9-5.82-.6-1.66-1.45-3.08-2.52-4.2-1.07-1.12-2.36-1.98-3.83-2.55-1.46-.57-3.07-.85-4.78-.85-1.85,0-3.6,.32-5.19,.96-1.6,.64-3,1.54-4.17,2.69-1.17,1.15-2.1,2.57-2.77,4.2-.67,1.63-1.01,3.46-1.01,5.44s.34,3.85,1.01,5.44c.67,1.6,1.61,2.97,2.81,4.08Zm3.11-12.5c.2-1.38,.82-2.5,1.87-3.41,1.16-1.01,2.61-1.52,4.29-1.52,.9,0,1.69,.15,2.35,.44,.65,.29,1.2,.68,1.62,1.16,.42,.48,.74,1.05,.93,1.69,.16,.52,.26,1.07,.29,1.63h-11.36Z"></path>
      <path class="headercls-2" d="M274.2,27.86c-1.98,.19-3.8,.57-5.43,1.15-1.66,.59-3.04,1.45-4.1,2.56-1.09,1.15-1.65,2.69-1.65,4.6,0,1.48,.32,2.74,.94,3.75,.62,1,1.4,1.82,2.33,2.44,.92,.61,1.95,1.05,3.04,1.31,1.07,.26,2.13,.39,3.12,.39,1.76,0,3.36-.36,4.75-1.07,.99-.51,1.8-1.13,2.41-1.85v2.32h6.47v-15.03c0-1.23-.17-2.48-.49-3.71-.33-1.26-.92-2.41-1.76-3.42-.84-1.02-2-1.85-3.44-2.47-1.43-.62-3.27-.94-5.44-.94-1.87,0-3.75,.33-5.57,.97-1.83,.65-3.47,1.64-4.87,2.94l-.31,.28,3.68,4.33,.33-.33c.73-.73,1.66-1.35,2.77-1.86,1.1-.51,2.27-.76,3.47-.76,1.4,0,2.63,.34,3.63,1,.96,.64,1.43,1.61,1.43,2.96v.16c-1.73,.01-3.52,.11-5.33,.28Zm5.33,4.64v.41c0,1.77-.5,3.19-1.48,4.2-.98,1.01-2.45,1.52-4.39,1.52-.47,0-.95-.05-1.41-.14-.46-.09-.86-.24-1.22-.45-.34-.2-.62-.46-.83-.79-.2-.31-.3-.71-.3-1.19,0-.77,.24-1.36,.75-1.79,.55-.48,1.26-.85,2.09-1.11,.86-.27,1.82-.45,2.85-.53,1.06-.08,2.08-.12,3.01-.12h.91Z"></path>
      <polygon class="headercls-2" points="306.74 18.59 300.65 35.38 294.6 18.59 287.1 18.59 297.15 43.46 304.14 43.46 314.03 18.59 306.74 18.59"></polygon>
      <path class="headercls-2" d="M336.95,21.46c-1.2-1.13-2.65-2.02-4.3-2.64-3.28-1.23-7.22-1.23-10.5,0-1.65,.62-3.1,1.51-4.3,2.64-1.21,1.14-2.17,2.52-2.87,4.12-.71,1.6-1.06,3.4-1.06,5.35s.36,3.76,1.06,5.37c.7,1.61,1.67,3.01,2.87,4.17,1.2,1.15,2.65,2.06,4.29,2.72,1.64,.65,3.41,.98,5.26,.98s3.62-.33,5.26-.98c1.65-.65,3.09-1.56,4.29-2.72,1.2-1.15,2.17-2.55,2.87-4.16,.7-1.62,1.06-3.42,1.06-5.37s-.36-3.75-1.06-5.35c-.7-1.6-1.67-2.98-2.87-4.12Zm-3.04,9.47c0,.88-.14,1.78-.41,2.67-.27,.88-.67,1.67-1.2,2.36-.52,.68-1.2,1.25-2.01,1.68-.8,.43-1.77,.65-2.89,.65s-2.09-.22-2.89-.65c-.81-.44-1.49-1-2.01-1.68-.53-.68-.93-1.48-1.2-2.36-.27-.89-.41-1.79-.41-2.67s.14-1.77,.41-2.65c.27-.86,.67-1.65,1.2-2.34,.52-.68,1.2-1.24,2.01-1.65,.8-.42,1.78-.62,2.9-.62s2.1,.21,2.9,.62c.8,.42,1.48,.98,2.01,1.65,.53,.69,.94,1.48,1.2,2.34,.27,.87,.41,1.76,.41,2.65Z"></path>
      <path class="headercls-2" d="M360.62,32.23c0,.75-.11,1.51-.33,2.25-.22,.73-.54,1.38-.96,1.94-.41,.55-.95,1-1.6,1.35-.65,.35-1.42,.52-2.27,.52s-1.57-.18-2.08-.52c-.53-.36-.94-.82-1.24-1.37-.31-.57-.51-1.21-.6-1.92-.1-.76-.14-1.48-.14-2.14v-13.73h-6.87v15.43c0,1.27,.17,2.52,.52,3.72,.34,1.21,.9,2.31,1.65,3.25,.76,.95,1.73,1.72,2.9,2.29,1.17,.58,2.59,.87,4.22,.87,1.88,0,3.54-.49,4.92-1.45,.9-.63,1.63-1.33,2.19-2.09v2.84h6.57V18.6h-6.87v13.63Z"></path>
      <path class="headercls-2" d="M386.67,18.06c-.23-.08-.51-.13-.81-.15-.27-.02-.53-.03-.77-.03-1.69,0-3.18,.47-4.46,1.38-.87,.63-1.6,1.39-2.21,2.29v-2.97h-6.62v24.87h6.87v-13.28c0-.4,.08-.96,.24-1.65,.15-.68,.45-1.35,.89-2.01,.43-.64,1.04-1.2,1.81-1.67,.9-.54,2.21-.83,3.85-.64,.27,.03,.59,.1,.97,.19l.54,.13v-6.37l-.3-.1Z"></path>
    </g>
    <g>
      <polygon class="headercls-2" points="157.41 70.65 173.66 70.65 173.66 64.48 157.41 64.48 157.41 57.25 174.56 57.25 174.56 50.87 150.24 50.87 150.24 85.35 175.46 85.35 175.46 78.88 157.41 78.88 157.41 70.65"></polygon>
      <path class="headercls-2" d="M199.55,62.94c-.76-.95-1.73-1.72-2.9-2.29-1.17-.58-2.59-.87-4.22-.87-1.88,0-3.54,.49-4.92,1.45-.9,.63-1.63,1.33-2.19,2.09v-2.84h-6.57v24.87h6.87v-13.63c0-.75,.11-1.51,.33-2.25,.22-.73,.54-1.38,.96-1.94,.41-.55,.95-1,1.59-1.35,.63-.35,1.4-.52,2.29-.52s1.57,.18,2.08,.52c.52,.36,.94,.82,1.24,1.37,.31,.57,.51,1.22,.6,1.93,.1,.75,.15,1.47,.15,2.14v13.73h6.87v-15.43c0-1.26-.17-2.51-.52-3.72-.35-1.22-.91-2.31-1.65-3.25Z"></path>
      <path class="headercls-2" d="M227.14,63.29c-1.07-1.12-2.36-1.98-3.83-2.55-1.46-.57-3.07-.85-4.78-.85-1.85,0-3.59,.32-5.19,.96-1.6,.64-3,1.54-4.17,2.69-1.17,1.15-2.1,2.56-2.77,4.19-.67,1.63-1.01,3.46-1.01,5.44s.34,3.85,1.01,5.44c.67,1.6,1.62,2.97,2.81,4.08,1.19,1.1,2.61,1.96,4.22,2.56,1.61,.6,3.39,.9,5.3,.9,4.62,0,8.21-1.67,10.65-4.98l.25-.34-4.69-3.75-.27,.39c-.62,.9-1.43,1.62-2.39,2.14-.96,.51-2.17,.77-3.6,.77-.81,0-1.6-.14-2.35-.42-.75-.28-1.43-.67-2.03-1.15-.59-.48-1.06-1.06-1.42-1.72-.29-.53-.47-1.11-.57-1.73h18.14l.05-.38c.04-.29,.06-.57,.06-.86v-.8c0-2.21-.3-4.17-.9-5.82-.6-1.67-1.45-3.08-2.52-4.2Zm-14.83,6.89c.2-1.38,.82-2.49,1.87-3.41,1.17-1.01,2.61-1.52,4.29-1.52,.9,0,1.69,.15,2.35,.44,.65,.29,1.2,.68,1.62,1.16,.42,.49,.74,1.05,.94,1.69,.16,.52,.26,1.07,.29,1.63h-11.36Z"></path>
      <path class="headercls-2" d="M248.36,59.81c-.28-.02-.53-.03-.78-.03-1.69,0-3.18,.47-4.46,1.38-.87,.63-1.6,1.39-2.21,2.29v-2.97h-6.62v24.87h6.87v-13.28c0-.4,.08-.95,.24-1.65,.15-.68,.45-1.35,.89-2,.43-.64,1.04-1.21,1.82-1.67,.9-.55,2.23-.83,3.85-.64,.27,.03,.59,.1,.97,.19l.54,.13v-6.37l-.3-.1c-.23-.08-.5-.13-.81-.15Z"></path>
      <path class="headercls-2" d="M270.57,63.25c-.81-1.02-1.81-1.82-2.98-2.38-1.52-.72-3.18-1.09-4.94-1.09-1.85,0-3.56,.35-5.06,1.04-1.5,.69-2.79,1.63-3.84,2.8-1.05,1.17-1.87,2.56-2.44,4.14-.56,1.57-.85,3.27-.85,5.05s.3,3.42,.88,4.98c.58,1.56,1.41,2.95,2.46,4.11,1.05,1.17,2.35,2.12,3.87,2.81,1.52,.69,3.23,1.04,5.08,1.04,1.72,0,3.3-.33,4.71-.97,1.08-.5,2.02-1.17,2.81-2.01v.67c0,1.16-.12,2.24-.36,3.21-.23,.94-.63,1.76-1.17,2.44-.54,.67-1.27,1.21-2.18,1.6-.93,.39-2.09,.59-3.45,.59-1.44,0-2.88-.28-4.29-.84-1.41-.56-2.69-1.38-3.81-2.44l-.36-.34-3.99,5.37,.32,.26c.79,.65,1.69,1.24,2.68,1.75,.98,.51,2.02,.94,3.09,1.28,1.07,.34,2.17,.59,3.27,.76,1.1,.17,2.15,.26,3.14,.26,2.38,0,4.47-.35,6.21-1.03,1.75-.69,3.23-1.68,4.38-2.94,1.16-1.26,2.02-2.82,2.57-4.62,.54-1.78,.82-3.8,.82-6v-22.28h-6.57v2.77Zm-9.39,16.02c-.79-.4-1.47-.94-2.01-1.61-.55-.67-.98-1.44-1.28-2.29-.3-.84-.45-1.73-.45-2.64,0-1.01,.15-1.97,.45-2.85,.3-.87,.72-1.64,1.27-2.27,.54-.63,1.21-1.14,2-1.51,.79-.37,1.71-.56,2.74-.56s1.96,.19,2.77,.56c.81,.37,1.51,.89,2.08,1.54,.58,.66,1.03,1.43,1.34,2.3,.32,.88,.47,1.82,.47,2.79s-.16,1.86-.47,2.72c-.31,.85-.76,1.62-1.34,2.28-.57,.65-1.28,1.17-2.11,1.56-1.61,.76-3.87,.79-5.47-.02Z"></path>
      <path class="headercls-2" d="M293.36,77.23l-6.32-16.46-.11-.28h-7.61l10.49,24.44-1.13,2.87c-.26,.62-.51,1.16-.74,1.63-.21,.42-.45,.78-.73,1.07-.25,.26-.56,.46-.92,.59-.6,.2-1.45,.26-2.48,.13-.35-.04-.72-.13-1.09-.26l-.52-.17-.59,6.12,.36,.09c.56,.14,1.11,.24,1.64,.29,.52,.05,1.05,.08,1.57,.08,1.37,0,2.57-.16,3.56-.47,1-.32,1.88-.79,2.62-1.4,.74-.61,1.38-1.38,1.9-2.26,.51-.87,.99-1.87,1.43-2.99l11.58-29.74h-7.2l-5.71,16.74Z"></path>
    </g>
  </g>
  <g>
    <g>
      <path class="headercls-1" d="M114.21,14.13c0,5.5-4.46,9.96-9.96,9.96-5.5,0-9.96-4.46-9.96-9.96,0-5.5,4.46-9.96,9.96-9.96,5.5,0,9.96,4.46,9.96,9.96"></path>
      <path class="headercls-1" d="M123.48,38.93c4.76-2.09,6.92-7.64,4.83-12.39-2.09-4.74-7.64-6.91-12.39-4.81-4.75,2.09-6.91,7.64-4.83,12.38,2.09,4.76,7.64,6.92,12.39,4.82"></path>
      <path class="headercls-1" d="M123.17,59.94c4.93,.28,9.14-3.49,9.42-8.41,.3-4.92-3.49-9.13-8.41-9.42-4.92-.29-9.13,3.48-9.42,8.41-.27,4.92,3.49,9.14,8.41,9.42"></path>
      <path class="headercls-1" d="M112.21,77.33c4.03,2.35,9.25,.99,11.6-3.06,2.35-4.05,.99-9.24-3.05-11.59-4.05-2.37-9.25-.99-11.61,3.05-2.37,4.04-1,9.24,3.06,11.61"></path>
      <path class="headercls-1" d="M94.64,86.84c2.39,3.74,7.4,4.83,11.13,2.42,3.74-2.41,4.81-7.39,2.42-11.15-2.43-3.74-7.41-4.82-11.15-2.4-3.74,2.4-4.84,7.39-2.41,11.13"></path>
      <path class="headercls-1" d="M75.38,86.89c.44,4.21,4.19,7.28,8.39,6.85,4.22-.43,7.28-4.18,6.85-8.38-.42-4.21-4.17-7.28-8.38-6.86-4.23,.43-7.29,4.18-6.86,8.39"></path>
      <path class="headercls-1" d="M50.27,63.26c-2.85,2.54-3.1,6.91-.55,9.75,2.54,2.86,6.9,3.1,9.75,.55,2.85-2.53,3.09-6.91,.55-9.75-2.54-2.85-6.9-3.1-9.75-.56"></path>
      <path class="headercls-1" d="M45.71,48.19c-3.51,.92-5.59,4.52-4.67,8.02,.92,3.52,4.53,5.6,8.03,4.68,3.48-.93,5.58-4.51,4.67-8.01-.93-3.51-4.52-5.6-8.03-4.68"></path>
      <path class="headercls-1" d="M49.94,33.37c-3.38-.72-6.69,1.41-7.41,4.78-.73,3.36,1.41,6.69,4.77,7.42,3.37,.74,6.7-1.41,7.42-4.78,.73-3.36-1.41-6.69-4.77-7.42"></path>
      <path class="headercls-1" d="M57.69,20.38c-3.38-.72-6.69,1.41-7.41,4.78-.73,3.36,1.41,6.69,4.76,7.42,3.37,.74,6.7-1.41,7.42-4.77,.73-3.36-1.41-6.69-4.77-7.42"></path>
      <path class="headercls-1" d="M59.33,80.09c0-3.96,3.21-7.16,7.16-7.16s7.16,3.21,7.16,7.16c0,3.95-3.21,7.16-7.16,7.16s-7.16-3.21-7.16-7.16"></path>
    </g>
    <g>
      <path class="headercls-3" d="M18.78,80.09c0-5.5,4.46-9.96,9.96-9.96,5.5,0,9.96,4.46,9.96,9.96,0,5.5-4.46,9.96-9.96,9.96-5.5,0-9.96-4.46-9.96-9.96"></path>
      <path class="headercls-3" d="M9.5,55.29c-4.76,2.09-6.92,7.64-4.83,12.39,2.09,4.74,7.64,6.91,12.39,4.81,4.75-2.09,6.91-7.64,4.83-12.38-2.09-4.76-7.64-6.92-12.39-4.82"></path>
      <path class="headercls-3" d="M9.81,34.28c-4.93-.28-9.14,3.49-9.42,8.41-.3,4.92,3.49,9.13,8.41,9.42,4.92,.29,9.13-3.48,9.42-8.41,.27-4.92-3.49-9.14-8.41-9.42"></path>
      <path class="headercls-3" d="M20.78,16.89c-4.03-2.35-9.25-.99-11.6,3.06-2.35,4.05-.99,9.24,3.05,11.59,4.05,2.37,9.25,.99,11.61-3.05,2.37-4.04,1-9.24-3.06-11.61"></path>
      <path class="headercls-3" d="M38.35,7.38c-2.39-3.74-7.4-4.83-11.13-2.42-3.74,2.41-4.81,7.39-2.42,11.15,2.43,3.74,7.41,4.82,11.15,2.4,3.74-2.4,4.84-7.39,2.41-11.13"></path>
      <path class="headercls-3" d="M57.6,7.33C57.16,3.12,53.41,.05,49.21,.48c-4.22,.43-7.28,4.18-6.85,8.38,.42,4.21,4.17,7.28,8.38,6.86,4.23-.43,7.29-4.18,6.86-8.39"></path>
      <path class="headercls-3" d="M82.71,30.96c2.85-2.54,3.1-6.91,.55-9.75-2.54-2.86-6.9-3.1-9.75-.55-2.85,2.53-3.09,6.91-.55,9.75,2.54,2.85,6.9,3.1,9.75,.56"></path>
      <path class="headercls-3" d="M87.28,46.03c3.51-.92,5.59-4.52,4.67-8.02-.92-3.52-4.53-5.6-8.03-4.68-3.48,.93-5.58,4.51-4.67,8.01,.93,3.51,4.52,5.6,8.03,4.68"></path>
      <path class="headercls-3" d="M83.05,60.85c3.38,.72,6.69-1.41,7.41-4.78,.73-3.36-1.41-6.69-4.77-7.42-3.37-.74-6.7,1.41-7.42,4.78-.73,3.36,1.41,6.69,4.77,7.42"></path>
      <path class="headercls-3" d="M75.29,73.84c3.38,.72,6.69-1.41,7.41-4.78,.73-3.36-1.41-6.69-4.76-7.42-3.37-.74-6.7,1.41-7.42,4.77-.73,3.36,1.41,6.69,4.77,7.42"></path>
      <path class="headercls-3" d="M73.65,14.13c0,3.96-3.21,7.16-7.16,7.16s-7.16-3.21-7.16-7.16c0-3.95,3.21-7.16,7.16-7.16s7.16,3.21,7.16,7.16"></path>
    </g>
  </g>
</svg>